<svg width="264" height="215" viewBox="0 0 264 215" fill="none" xmlns="http://www.w3.org/2000/svg">
<rect y="78.6977" width="73.5243" height="43.0019" rx="8" transform="rotate(-9.94486 0 78.6977)" fill="#645CAA"/>
<rect x="212" y="57.2432" width="47.7311" height="27.9164" rx="4" transform="rotate(-9.94486 212 57.2432)" fill="#645CAA"/>
<rect x="212" y="57.2432" width="47.7311" height="27.9164" rx="4" transform="rotate(-9.94486 212 57.2432)" fill="#645CAA"/>
<path d="M213.775 134.428C219.108 131.349 225.775 135.198 225.775 141.356L225.775 181.194C225.775 187.352 219.108 191.201 213.775 188.122L179.275 168.203C173.942 165.124 173.942 157.426 179.275 154.347L213.775 134.428Z" fill="#EBC7E8"/>
<path d="M103.727 24.6261C102.93 21.6518 105.652 18.9302 108.626 19.7271L137.674 27.5105C140.648 28.3075 141.645 32.0253 139.467 34.2027L118.203 55.4673C116.025 57.6446 112.308 56.6484 111.511 53.6741L103.727 24.6261Z" fill="#EBC7E8"/>
<circle cx="125" cy="141" r="20" fill="#A084CA"/>
</svg>
