<svg width="24" height="25" viewBox="0 0 24 25" fill="none" xmlns="http://www.w3.org/2000/svg">
<g clip-path="url(#clip0_359_700)">
<path d="M20 3.5H19V2.5C19 1.95 18.55 1.5 18 1.5C17.45 1.5 17 1.95 17 2.5V3.5H7V2.5C7 1.95 6.55 1.5 6 1.5C5.45 1.5 5 1.95 5 2.5V3.5H4C2.9 3.5 2 4.4 2 5.5V21.5C2 22.6 2.9 23.5 4 23.5H20C21.1 23.5 22 22.6 22 21.5V5.5C22 4.4 21.1 3.5 20 3.5ZM19 21.5H5C4.45 21.5 4 21.05 4 20.5V8.5H20V20.5C20 21.05 19.55 21.5 19 21.5Z" fill="#3D3C41"/>
</g>
<defs>
<clipPath id="clip0_359_700">
<rect width="24" height="24" fill="white" transform="translate(0 0.5)"/>
</clipPath>
</defs>
</svg>
