<svg width="24" height="24" viewBox="0 0 24 24" fill="none" xmlns="http://www.w3.org/2000/svg">
<g clip-path="url(#clip0_349_993)">
<path d="M15.6464 4.64645C15.8417 4.84171 15.8417 5.15829 15.6464 5.35355L14.9336 6.06645C14.7383 6.26171 14.4217 6.26171 14.2264 6.06645L13.1607 5.00071C13.0977 4.93771 12.99 4.98233 12.99 5.07142V15.5C12.99 15.7761 12.7661 16 12.49 16H11.51C11.2339 16 11.01 15.7761 11.01 15.5V5.07142C11.01 4.98233 10.9023 4.93771 10.8393 5.00071L9.77355 6.06645C9.57829 6.26171 9.26171 6.26171 9.06645 6.06645L8.35355 5.35355C8.15829 5.15829 8.15829 4.84171 8.35355 4.64645L11.6464 1.35355C11.8417 1.15829 12.1583 1.15829 12.3536 1.35355L15.6464 4.64645ZM20 10V21C20 22.1 19.1 23 18 23H6C4.89 23 4 22.1 4 21V10C4 8.89 4.89 8 6 8H8.5C8.77614 8 9 8.22386 9 8.5V9.5C9 9.77614 8.77614 10 8.5 10H6V21H18V10H15.5C15.2239 10 15 9.77614 15 9.5V8.5C15 8.22386 15.2239 8 15.5 8H18C19.1 8 20 8.89 20 10Z" fill="#15141A"/>
</g>
<defs>
<clipPath id="clip0_349_993">
<rect width="24" height="24" fill="white"/>
</clipPath>
</defs>
</svg>
